# xmcd CD database file
#
# Track frame offsets:
#	150
#	20278
#	47082
#	75872
#	98722
#	118002
#	139682
#	160854
#	185836
#	208449
#	236376
#
# Disc length: 3547 seconds
#
# Revision: 1
# Processed by: cddbd v1.5.1PL0 Copyright (c) Steve Scherf et al.
# Submitted via: CDex 1.51
#
DISCID=8b0dd90b
DTITLE=Tizian Jost Trio - Our Reflections
DYEAR=2005
DGENRE=Jazz
TTITLE0=Reflection
TTITLE1=Sweet Georgia Fame
TTITLE2=Besame Mucho
TTITLE3=The Good Life
TTITLE4=Waltz
TTITLE5=Come Rain Or Come Shine
TTITLE6=Recado Bossa Nova
TTITLE7=The Old Country
TTITLE8=Laura
TTITLE9=Corcovado - Quiet Nights
TTITLE10=Darn That Dream
EXTD=YEAR: 2005
EXTT0=
EXTT1=
EXTT2=
EXTT3=
EXTT4=
EXTT5=
EXTT6=
EXTT7=
EXTT8=
EXTT9=
EXTT10=
PLAYORDER=
